# xmcd
#
# Track frame offsets:
#	150
#	12481
#	22645
#	34350
#	46801
#	63027
#	77754
#	93829
#	106504
#	122936
#	143740
#	156788
#	176939
#	188426
#	203301
#	214318
#	228230
#	238946
#	254652
#
# Disc length: 3687 seconds
#
# Revision: 1
# Processed by: cddbd v1.5.2PL0 Copyright (c) Steve Scherf et al.
# Submitted via: audiograbber 1.83.01
#
DISCID=f10e6513
DTITLE=The Boogie Busters - Beer Bottle Boogie
DYEAR=2009
DGENRE=Boogie Woogie
TTITLE0=Ten years on the road
TTITLE1=Welcome and goodbye
TTITLE2=Nothing but the Blues
TTITLE3=Tombstone Boogie
TTITLE4=Dont you know
TTITLE5=Bartender
TTITLE6=Station Blues
TTITLE7=The way back home
TTITLE8=Beer bottle Boogie
TTITLE9=Jambalaya
TTITLE10=What a man
TTITLE11=When I lost my Baby
TTITLE12=Lets Boogie
TTITLE13=Detroit rocks
TTITLE14=Halleluja
TTITLE15=Mess around
TTITLE16=Blind 1
TTITLE17=Blind 2
TTITLE18=I found Faith
EXTD=
EXTT0=
EXTT1=
EXTT2=
EXTT3=
EXTT4=
EXTT5=
EXTT6=
EXTT7=
EXTT8=
EXTT9=
EXTT10=
EXTT11=
EXTT12=
EXTT13=
EXTT14=
EXTT15=
EXTT16=
EXTT17=
EXTT18=
PLAYORDER=
